<?xml version="1.0" encoding="iso-8859-1"?>
<!-- Generator: Adobe Illustrator 16.0.0, SVG Export Plug-In . SVG Version: 6.00 Build 0)  -->
<!DOCTYPE svg PUBLIC "-//W3C//DTD SVG 1.1//EN" "http://www.w3.org/Graphics/SVG/1.1/DTD/svg11.dtd">
<svg version="1.1" id="Capa_1" xmlns="http://www.w3.org/2000/svg" xmlns:xlink="http://www.w3.org/1999/xlink" x="0px" y="0px"
	 width="496.645px" height="496.645px" viewBox="0 0 496.645 496.645" style="enable-background:new 0 0 496.645 496.645;"
	 xml:space="preserve">
<g>
	<g>
		<path d="M270.684,105.725c17.693,4.88,37.049,0.227,50.616-12.127c13.763-12.529,20.154-31.878,16.564-50.142
			c-3.513-17.869-16.184-33.124-33.147-39.773c-17.207-6.745-37.058-4.104-51.89,6.928C237.902,21.712,229.631,40.275,231.36,58.8
			c1.685,18.061,12.725,34.489,28.842,42.826C263.541,103.354,267.061,104.726,270.684,105.725L270.684,105.725z"/>
		<path d="M291.009,344.258c-1.816-17.854-4.457-35.621-7.462-53.312c3.188-5.211,5.264-10.861,6.722-16.766
			c0.852-3.446,1.703-6.896,2.555-10.343c2.953-11.951,5.905-23.903,8.857-35.854c2.524-10.224,5.051-20.447,7.575-30.671
			c0.33-1.334,0.66-2.668,0.989-4.002c6.513,8.13,12.175,16.803,17.075,25.999c5.879,11.032,10.137,22.933,13.164,35.039
			c1.583,6.329,2.623,12.74,3.602,19.186c1.311,8.301,9.136,14.269,17.48,13.389c8.347-0.881,14.72-8.373,14.272-16.749
			c-0.549-10.152-1.393-20.217-3.284-30.222c-2.32-12.254-5.728-24.295-10.353-35.885c-9.392-23.544-23.426-45.267-40.885-63.635
			c-7.834-8.243-16.338-16.239-25.812-22.585c-2.012-1.347-9.355-5.619-14.201-7.278c-9.528-3.265-19.717-3.903-34.234-0.834
			c-24.685,5.219-48.533,14.111-70.561,26.328c-11.208,6.216-21.861,13.423-32.072,21.148c-2.434,1.841-4.879,3.649-7.213,5.618
			c-2.359,1.99-4.703,4-7.064,5.987c-4.402,3.705-8.51,7.711-12.667,11.685c-1.2,1.146-2.399,2.293-3.6,3.438
			c-6.179,5.947-6.522,16.07-0.711,22.388c5.53,6.013,15.021,6.811,21.491,1.834c2.86-2.201,5.721-4.401,8.58-6.605
			c4.807-3.707,9.811-7.083,14.824-10.505c2.527-1.727,5.184-3.245,7.805-4.827c2.738-1.652,5.468-3.31,8.3-4.797
			c5.101-2.681,10.196-5.277,15.427-7.694c5.42-2.505,10.957-4.866,16.607-6.8l-20.534,83.123
			c-1.524,6.172-1.948,12.604-1.226,18.919c0.168,1.475,0.398,2.939,0.688,4.395c0.145,0.724,0.305,1.442,0.479,2.161
			c0.195,0.807,0.57,1.679,0.561,2.509c-0.033,3.037-0.166,6.069-0.33,9.103c-0.684,12.533-2.629,25.112-5.87,37.241
			c-5.852,21.896-16.031,42.832-31.828,59.295c-6.478,6.752-13.726,12.952-21.681,17.919c-5.28,3.296-10.796,6.104-16.339,8.919
			c-8.427,4.325-12.589,14.446-9.653,23.449c2.857,8.771,11.758,14.487,20.927,13.391c1.653-0.198,3.279-0.61,4.829-1.218
			c3.264-1.279,6.538-2.533,9.793-3.833c5.604-2.237,11.041-5.115,16.287-8.076c10.801-6.101,21.063-13.366,30.109-21.881
			c4.651-4.377,9.307-8.921,13.342-13.881c3.528-4.337,6.947-8.705,10.221-13.239c5.848-8.103,10.795-16.949,15.143-25.933
			c5.557-11.479,10.076-23.447,13.564-35.715c2.842,11.904,5.462,23.874,7.535,35.938c1.773,10.326,3.355,20.827,2.965,31.33
			c-0.011,0.063,0.09-0.478,0.043-0.21c-3.162,21.636-10.186,42.533-18.32,62.771c-1.298,3.229-2.924,6.435-4.02,9.719
			c-1.404,4.214-1.311,8.853,0.236,13.014c3.211,8.625,12.32,13.963,21.416,12.522c6.219-0.982,11.688-4.984,14.496-10.621
			c10.348-19.182,19.688-39.104,26.604-59.795c3.213-9.605,6.148-19.54,6.829-29.7c0.956-12.47,0.255-25.044-0.829-37.479
			C291.455,348.797,291.238,346.526,291.009,344.258C290.309,337.386,291.706,351.132,291.009,344.258z"/>
		<path d="M346.301,394.935c-18.043,0-35.077,9.861-44.09,25.491c-9.135,15.849-8.926,35.982,0.537,51.637
			c9.351,15.467,26.612,24.965,44.682,24.57c18.008-0.392,34.812-10.614,43.479-26.398c8.805-16.034,8.176-36.158-1.609-51.611
			C380.041,404.002,363.607,394.935,346.301,394.935z"/>
	</g>
</g>
<g>
</g>
<g>
</g>
<g>
</g>
<g>
</g>
<g>
</g>
<g>
</g>
<g>
</g>
<g>
</g>
<g>
</g>
<g>
</g>
<g>
</g>
<g>
</g>
<g>
</g>
<g>
</g>
<g>
</g>
</svg>
