<svg xmlns="http://www.w3.org/2000/svg" viewBox="0 0 488.9 488.9"><path d="M377.35 129.2l26.4-26.4-14.7-14.7-28.4 28.4c-30.4-21-66.8-34-105.8-36V20.8h34.3V0h-89.5v20.8h34.3v59.6c-107.5 5.4-194.4 93.8-194.4 203.6 0 113.4 92.6 204.9 204.9 204.9s204.9-92.6 204.9-204.9c0-61.8-28-117.4-72-154.8zm-132.9 339c-100.9 0-184.1-81.1-184.1-183.1s83.2-184.2 184.1-184.2S428.55 182 428.55 284s-83.2 184.2-184.1 184.2z"/><path d="M234.05 117.6h20.8v44.7h-20.8zM234.05 405.8h20.8v44.7h-20.8zM366.15 273.6h44.7v20.8h-44.7zM77.95 273.6h44.7v20.8h-44.7zM159.773 184.654l91.922 91.922-14.708 14.708-91.922-91.922 14.708-14.708z"/></svg>