<svg xmlns="http://www.w3.org/2000/svg" viewBox="0 0 463 463"><path d="M0 80.05v302.9h463V80.05H0zm239 109.2c20.1 3.6 35.5 21.2 35.5 42.3 0 21.2-15.4 38.8-35.5 42.3v-84.6zm-224-26.7h34.8v137.9H15v-137.9zm209 111.3c-20.1-3.6-35.5-21.2-35.5-42.3 0-21.2 15.4-38.8 35.5-42.3v84.6zm0-99.8c-28.4 3.7-50.5 28.1-50.5 57.5s22.1 53.8 50.5 57.5v79H15v-52.5h49.8v-51c17.8 0 32.4-14.8 32.4-33s-14.5-33-32.4-33v-51H15v-52.5h209v79zm-159.2 75.5v-36c9.6 0 17.4 8.1 17.4 18s-7.8 18-17.4 18zm383.2 51h-34.8v-138H448v138zm0-153h-49.8v51H397c-17.9 0-32.4 14.8-32.4 33s14.5 33 32.4 33h1.2v51H448v52.5H239v-79c28.4-3.7 50.5-28.1 50.5-57.5s-22.1-53.8-50.5-57.5v-79h209v52.5zm-49.8 66v36H397c-9.6 0-17.4-8.1-17.4-18s7.8-18 17.4-18h1.2z"/></svg>