<svg xmlns="http://www.w3.org/2000/svg" viewBox="0 0 485 485"><path d="M142.8 33.45c-4.8-4.8-12.5-4.8-17.3 0l-77.3 76.8-27.3-27.5c-4.8-4.8-12.5-4.8-17.3 0s-4.8 12.5 0 17.3l36 36.2c2.4 2.4 5.5 3.6 8.7 3.6 3.1 0 6.2-1.2 8.6-3.6l86-85.5c4.6-4.8 4.7-12.5-.1-17.3zM73.2 187.45c-30.3 0-55 24.7-55 55s24.7 55 55 55 55-24.7 55-55c-.1-30.3-24.7-55-55-55zm0 85.5c-16.8 0-30.5-13.7-30.5-30.5s13.7-30.5 30.5-30.5 30.5 13.7 30.5 30.5-13.7 30.5-30.5 30.5zM73.2 345.15c-30.3 0-55 24.7-55 55s24.7 55 55 55 55-24.7 55-55c-.1-30.4-24.7-55-55-55zm0 85.4c-16.8 0-30.5-13.7-30.5-30.5s13.7-30.5 30.5-30.5 30.5 13.7 30.5 30.5c-.1 16.9-13.7 30.5-30.5 30.5zM472.6 206.75H189c-6.8 0-12.3 5.5-12.3 12.3s5.5 12.3 12.3 12.3h283.6c6.8 0 12.3-5.5 12.3-12.3s-5.5-12.3-12.3-12.3zM472.6 253.65H189c-6.8 0-12.3 5.5-12.3 12.3s5.5 12.3 12.3 12.3h283.6c6.8 0 12.3-5.5 12.3-12.3s-5.5-12.3-12.3-12.3zM189 388.85h283.6c6.8 0 12.3-5.5 12.3-12.3s-5.5-12.3-12.3-12.3H189c-6.8 0-12.3 5.5-12.3 12.3s5.5 12.3 12.3 12.3zM472.6 435.85c6.8 0 12.3-5.5 12.3-12.3s-5.5-12.3-12.3-12.3H189c-6.8 0-12.3 5.5-12.3 12.3s5.5 12.3 12.3 12.3h283.6zM176.8 61.35c0 6.8 5.5 12.3 12.3 12.3h283.6c6.8 0 12.3-5.5 12.3-12.3s-5.5-12.3-12.3-12.3H189c-6.8 0-12.2 5.5-12.2 12.3zM472.6 96.05H189c-6.8 0-12.3 5.5-12.3 12.3 0 6.8 5.5 12.3 12.3 12.3h283.6c6.8 0 12.3-5.5 12.3-12.3 0-6.8-5.5-12.3-12.3-12.3z"/></svg>