<svg xmlns="http://www.w3.org/2000/svg" width="64" height="64" viewBox="0 0 48 48"><path d="M48 33.898a13.8 13.8 0 00-2.434-7.843 14.02 14.02 0 00-4.324-4.09 10.416 10.416 0 003.27-7.578c0-5.758-4.688-10.442-10.446-10.442a10.47 10.47 0 00-8.554 4.461 10.164 10.164 0 00-3.024 0 10.47 10.47 0 00-8.554-4.46c-5.758 0-10.446 4.683-10.446 10.44 0 2.985 1.262 5.677 3.27 7.579a14.02 14.02 0 00-4.324 4.09A13.8 13.8 0 000 33.898v5.809h10.066v4.348h27.868v-4.348H48zM34.066 6.523c4.336 0 7.868 3.528 7.868 7.864s-3.532 7.867-7.868 7.867c-.078 0-.156-.004-.234-.004.008-.016.012-.035.02-.05.132-.38.246-.77.336-1.173.003-.027.011-.054.019-.082.023-.11.043-.218.063-.328.007-.05.02-.101.027-.152l.047-.293.023-.207c.012-.086.02-.172.028-.258.011-.09.015-.18.023-.27l.012-.21c.008-.153.011-.305.011-.457v-.032-.02a9.23 9.23 0 00-.011-.464c0-.043-.004-.086-.008-.133-.008-.129-.016-.262-.027-.39a10.392 10.392 0 00-6.207-8.563 7.888 7.888 0 015.878-2.645zm-12.789 4.832c.028-.007.051-.015.078-.023.079-.031.157-.055.235-.082.062-.02.12-.04.183-.055.043-.015.086-.027.133-.039.078-.02.157-.043.239-.062a7.835 7.835 0 013.71 0c.082.02.16.043.239.062.047.012.09.028.136.04.06.019.118.034.18.054.078.027.156.055.238.082l.07.023a7.89 7.89 0 015.052 6.157l.011.07.035.29.012.105c.008.09.016.18.02.27.004.038.007.077.007.116.008.114.008.227.008.344 0 .012.004.02.004.031 0 .004-.004.008-.004.012 0 .113 0 .223-.008.336 0 .035 0 .07-.003.105l-.024.32c-.004.04-.012.079-.015.122-.008.066-.016.137-.028.203-.004.055-.012.11-.023.16-.012.082-.028.16-.043.238-.012.075-.028.145-.043.215-.008.04-.02.082-.028.125l-.082.313-.035.12-.058.18-.047.141c-.02.05-.04.106-.059.156-.031.09-.066.18-.101.266-.02.04-.036.078-.051.117a3.738 3.738 0 01-.102.219l-.011.023a1.524 1.524 0 01-.036.078c-.039.079-.078.157-.117.231-.015.031-.031.062-.05.09v.004c-.047.082-.094.164-.141.242-.02.031-.035.062-.055.094-.05.086-.105.168-.16.25l-.105.148a1.45 1.45 0 01-.09.125c-.04.055-.078.11-.121.16-.028.04-.055.074-.082.11a4.8 4.8 0 01-.133.16c-.028.031-.055.066-.086.097-.043.055-.09.106-.137.157-.031.03-.059.062-.09.093-.074.082-.156.16-.234.239l-.149.14c-.03.032-.066.059-.101.09-.059.051-.113.102-.172.149-.027.027-.059.05-.09.074a7.931 7.931 0 01-.27.21A7.827 7.827 0 0124 26.603a7.827 7.827 0 01-4.742-1.594c-.07-.055-.14-.11-.211-.168-.031-.024-.063-.047-.09-.074-.059-.047-.113-.098-.172-.149-.035-.031-.07-.058-.101-.09l-.149-.14c-.078-.078-.16-.16-.238-.242-.027-.028-.055-.06-.086-.09-.047-.051-.094-.106-.14-.157-.028-.03-.055-.066-.083-.097a4.8 4.8 0 01-.215-.27 2.457 2.457 0 01-.12-.16 1.45 1.45 0 01-.09-.125l-.106-.148a8.933 8.933 0 01-.16-.25c-.02-.032-.035-.063-.055-.094a3 3 0 01-.14-.242 12.586 12.586 0 01-.168-.324c-.016-.028-.028-.055-.04-.083-.003-.003-.003-.011-.007-.015a3.98 3.98 0 01-.102-.227l-.047-.11c-.039-.089-.074-.179-.11-.269-.015-.05-.034-.101-.05-.152-.02-.05-.035-.102-.055-.152-.015-.055-.035-.11-.05-.168-.028-.082-.051-.168-.075-.25-.015-.063-.027-.121-.043-.18l-.035-.14-.035-.176c-.02-.09-.035-.18-.05-.274-.008-.05-.016-.097-.02-.148-.012-.074-.02-.149-.031-.223l-.012-.11a4.32 4.32 0 01-.024-.327c-.003-.032-.003-.063-.003-.094a5.284 5.284 0 010-.73c0-.036.003-.07.003-.102l.024-.285.012-.098c.007-.102.023-.2.035-.3l.011-.06a7.898 7.898 0 015.047-6.16zm-15.21 3.032c0-4.336 3.53-7.864 7.867-7.864 2.261 0 4.402.985 5.879 2.645a10.398 10.398 0 00-6.208 8.555c-.011.136-.02.27-.027.406a10.183 10.183 0 00-.008 1.102l.012.195c.008.094.012.191.023.285.008.082.016.164.028.25.008.07.015.144.027.215.012.094.027.187.043.285.008.055.02.11.027.164.02.105.04.21.063.316l.023.102a10.221 10.221 0 00.348 1.207c-.074 0-.152.004-.23.004-4.336 0-7.868-3.531-7.868-7.867zm6.16 16.43l-.082.136c-.06.094-.118.192-.172.285-.036.055-.063.11-.094.164l-.152.27-.09.172c-.047.09-.09.18-.137.27a7.181 7.181 0 00-.082.171c-.047.094-.09.192-.133.285-.023.055-.05.106-.07.16-.05.114-.102.23-.149.348-.011.035-.027.067-.039.102-.062.152-.117.304-.172.457l-.035.105a7.536 7.536 0 00-.117.356c-.02.058-.035.113-.05.168-.032.101-.06.199-.09.3l-.047.184c-.028.098-.051.195-.075.293-.015.062-.027.125-.043.187-.02.102-.043.2-.062.301l-.035.18c-.02.11-.04.219-.055.328-.008.05-.02.106-.027.156-.024.16-.043.32-.063.485v.004c-.02.148-.031.296-.043.445H2.578v-3.23c0-4.415 2.535-8.38 6.512-10.262a10.384 10.384 0 006.36 1.082c.077.113.155.222.238.332.027.035.058.07.085.105.082.106.165.207.25.309l.106.125a15.06 15.06 0 00.375.41l.23.23c.032.028.059.06.09.086-.113.067-.222.137-.336.207l-.05.036c-.11.07-.22.144-.329.218-.035.028-.074.051-.109.078-.098.067-.191.137-.285.207-.031.024-.063.043-.09.067-.121.09-.238.183-.355.277-.028.02-.051.043-.079.063-.09.074-.183.152-.273.23l-.105.094c-.094.078-.184.16-.27.242-.023.024-.047.043-.07.067-.11.101-.22.207-.325.312-.027.027-.054.059-.082.086-.082.082-.16.164-.242.25-.031.035-.062.07-.094.102-.085.097-.175.195-.261.296-.016.016-.028.032-.043.047-.098.117-.196.235-.29.352-.027.031-.05.066-.077.098-.07.093-.141.183-.211.277l-.082.105c-.09.125-.18.25-.266.38-.094.132-.184.273-.273.41zm.418 10.663v-3.234c0-.14.003-.285.007-.426 0-.047.004-.093.008-.14.004-.094.008-.192.016-.285.004-.055.011-.114.015-.172l.024-.246.023-.184c.012-.078.02-.156.032-.234.007-.063.02-.125.03-.188.012-.074.024-.152.04-.226.012-.063.027-.125.039-.188.016-.074.027-.148.047-.219.011-.066.027-.129.043-.191.02-.07.035-.145.054-.215.016-.062.036-.125.055-.191l.059-.207c.02-.063.039-.125.062-.192.02-.066.043-.133.067-.199.02-.063.043-.125.066-.191.023-.063.047-.13.074-.196.024-.062.051-.125.074-.187l.082-.196c.024-.062.055-.12.083-.183.027-.063.054-.13.085-.192a3.85 3.85 0 01.09-.18c.032-.062.059-.124.09-.187.031-.058.067-.117.098-.18.031-.058.066-.117.097-.18l.106-.175c.035-.059.066-.117.105-.176.036-.058.07-.117.11-.172.035-.058.07-.117.11-.171.038-.059.077-.114.116-.172.04-.055.078-.114.118-.168.039-.055.078-.11.12-.164l.122-.164c.043-.055.086-.106.129-.16.043-.055.086-.106.129-.16.046-.052.09-.102.132-.157.047-.05.09-.102.137-.152l.14-.153c.048-.05.094-.101.141-.148.047-.05.094-.098.145-.149.047-.046.098-.097.148-.144.047-.047.098-.094.149-.14.05-.048.101-.094.152-.141l.156-.137.157-.133a5.75 5.75 0 00.16-.129c.054-.047.11-.09.164-.133.054-.039.11-.082.164-.12.058-.044.113-.087.172-.126.054-.043.113-.082.168-.12l.175-.118c.06-.039.118-.074.176-.113.059-.04.121-.074.18-.113a7.32 7.32 0 01.18-.106c.058-.035.12-.07.183-.105.063-.036.121-.07.184-.102.062-.035.129-.066.191-.102.063-.03.125-.062.188-.093.047-.024.097-.047.148-.07A10.357 10.357 0 0024 29.18c1.746 0 3.395-.434 4.84-1.196l.148.07.188.094c.062.036.129.067.191.102.059.031.121.066.184.102l.183.105.18.105c.059.04.121.075.18.114.058.039.117.074.176.113.058.04.117.078.171.117.059.04.118.082.172.121.059.04.114.082.168.121.055.043.114.086.168.13.055.038.11.081.16.124.055.047.11.09.164.133l.157.133c.05.047.105.094.156.137l.152.14c.051.047.102.094.149.14.05.048.097.099.148.145.047.051.098.098.145.149.047.047.093.098.14.148l.14.153.134.152c.047.05.09.105.136.156.043.055.086.106.13.16.042.055.085.106.128.16.04.055.078.11.121.165.04.054.082.109.121.164.04.054.079.113.118.168.039.054.078.113.117.172l.11.168c.038.058.073.117.109.175l.105.176.106.176c.03.058.062.121.097.18.031.062.063.12.094.18.035.062.062.124.094.187.03.058.062.12.09.18.03.062.058.128.085.19l.083.184.082.196c.023.062.05.125.074.187.023.067.05.13.074.196.023.062.047.128.066.191.024.066.047.133.067.203.023.063.043.125.062.188l.059.207c.02.066.039.129.055.191.02.07.035.145.05.215.016.062.035.125.047.191.02.07.031.145.047.215.012.067.027.129.04.192.015.074.026.148.038.226.008.063.02.125.031.188.012.078.02.156.032.234l.023.18.024.25c.004.058.011.117.015.172.008.093.012.19.016.285.004.047.008.093.008.14.004.14.007.285.007.426v3.234zm25.242-4.351a12.743 12.743 0 00-.106-.938l-.023-.144-.059-.336-.035-.176c-.02-.101-.039-.203-.062-.305-.016-.062-.028-.125-.043-.183a6.59 6.59 0 00-.075-.297 7.112 7.112 0 00-.137-.488 8.458 8.458 0 00-.202-.625c-.055-.153-.11-.305-.172-.457-.012-.035-.028-.067-.04-.098a13.722 13.722 0 00-.214-.508c-.047-.097-.09-.195-.137-.293-.027-.054-.055-.11-.082-.168a8.919 8.919 0 00-.379-.71l-.094-.165a11.049 11.049 0 00-.172-.285l-.082-.137c-.09-.136-.18-.277-.273-.41a13.12 13.12 0 00-.266-.379l-.082-.105c-.07-.094-.14-.184-.21-.277-.028-.032-.051-.067-.079-.098-.097-.117-.191-.235-.293-.352-.011-.015-.023-.03-.039-.043a9.737 9.737 0 00-.265-.3c-.032-.032-.059-.067-.09-.102a14.395 14.395 0 01-.242-.25c-.028-.027-.055-.059-.082-.082a8.224 8.224 0 00-.325-.316c-.023-.024-.047-.043-.066-.063-.09-.086-.184-.164-.273-.246l-.106-.094a7.88 7.88 0 00-.277-.23c-.024-.02-.047-.043-.075-.063-.117-.093-.234-.187-.355-.277l-.09-.067c-.094-.07-.187-.136-.285-.207a9.149 9.149 0 00-.434-.293c-.02-.011-.039-.027-.058-.039-.11-.07-.219-.14-.332-.207a.892.892 0 00.086-.086 6.63 6.63 0 00.234-.234l.129-.133c.086-.09.168-.183.246-.277l.106-.117.253-.313c.028-.035.055-.07.079-.105.086-.11.164-.219.242-.332a10.384 10.384 0 006.36-1.082c3.972 1.883 6.51 5.847 6.51 10.261v3.23zm0 0"/></svg>