<svg xmlns="http://www.w3.org/2000/svg" width="486.347" height="486.347"><path d="M14.32 158.336a23.774 23.774 0 0028.78 17.208l39.417-9.79c4.466-1.072 5.626 2.404 5.626 4.396v249.939c0 13.049 10.63 23.676 23.686 23.676H374.7c13.063 0 23.699-10.627 23.699-23.676V170.208c0-1.729.497-4.626 3.892-4.626.528 0 1.13.08 1.719.23l39.237 9.74a23.8 23.8 0 005.727.702 23.759 23.759 0 0023.051-17.909l13.577-53.215c1.566-6.141.645-12.509-2.605-17.941-3.241-5.422-8.411-9.253-14.559-10.778l-124.463-30.9a93.279 93.279 0 00-22.998-2.879l-30.453-.05-1.454 6.015c-5.154 21.454-24.149 36.434-46.196 36.434-22.051 0-41.05-14.979-46.198-36.434l-1.453-6.015h-28.569l-1.403.058c-7.72 0-15.437.974-22.876 2.863L17.915 76.41C11.76 77.935 6.596 81.766 3.346 87.188c-3.242 5.424-4.17 11.8-2.599 17.941l13.573 53.207zm2.496-63.085a7.783 7.783 0 014.875-3.597l41.755-10.369 8.023 31.575 49.46-12.569-7.955-31.298 33.254-8.259c6.224-1.585 12.621-2.393 19.46-2.393l17.499-.058c8.756 25.281 32.486 42.449 59.703 42.449 27.221 0 50.948-17.168 59.692-42.449l18.486.058a77.43 77.43 0 0119.087 2.406l124.503 30.907a7.83 7.83 0 014.861 3.597c1.09 1.806 1.395 3.932.865 5.999l-13.577 53.215c-1.074 4.218-5.534 6.927-9.773 5.851l-39.229-9.74a22.873 22.873 0 00-5.506-.683c-11.177 0-19.593 8.736-19.593 20.323v249.89c0 4.399-3.59 7.975-7.99 7.975H111.829c-4.404 0-7.985-3.575-7.985-7.975V170.158c0-11.588-8.43-20.324-19.61-20.324-1.805 0-3.665.226-5.5.683l-39.417 9.79c-4.32 1.07-8.708-1.633-9.79-5.851l-13.573-53.215c-.526-2.058-.224-4.184.862-5.99z"/><path d="M179.787 285.376h26.846V152.104h-21.88c0 1.162-.337 2.943-1.012 5.332-1.162 3.979-2.867 7.163-5.137 9.56-3.296 3.493-7.582 5.827-12.834 6.989-3.296.735-9.069 1.286-17.324 1.655v17.829h31.342v91.907zM291.918 288.689c16.976 0 28.882-5.935 35.711-17.825 6.841-11.89 10.251-28.825 10.251-50.832 0-22.002-3.41-38.968-10.251-50.916-6.813-11.948-18.735-17.923-35.711-17.923-16.971 0-28.869 5.975-35.71 17.923-6.824 11.948-10.241 28.921-10.241 50.916 0 22.007 3.417 38.942 10.241 50.832 6.841 11.891 18.739 17.825 35.71 17.825zm-15.44-104.321c2.517-7.724 7.675-11.575 15.44-11.575 7.791 0 12.889 3.859 15.305 11.575 2.421 7.729 3.635 19.61 3.635 35.664 0 15.318-1.214 27.044-3.635 35.163-2.425 8.111-7.514 12.179-15.305 12.179-7.766 0-12.915-4.067-15.44-12.179-2.513-8.119-3.763-19.838-3.763-35.163 0-16.053 1.25-27.935 3.763-35.664zM123.063 384.888l24.295.229-.298 29.731-24.295-.245.298-29.715z"/></svg>